<svg xmlns="http://www.w3.org/2000/svg" viewBox="0 0 1220 420" role="img" aria-labelledby="title">
  <title id="title">losthusky / drop</title>
  <defs>
    <linearGradient id="tile" x1="42" y1="44" x2="372" y2="374" gradientUnits="userSpaceOnUse"><stop stop-color="#306CFF"/><stop offset=".5" stop-color="#338BF3"/><stop offset="1" stop-color="#18C5C9"/></linearGradient>
    <linearGradient id="word" x1="420" y1="80" x2="1110" y2="340" gradientUnits="userSpaceOnUse"><stop stop-color="#2F6BFF"/><stop offset=".7" stop-color="#2A78F5"/><stop offset="1" stop-color="#18BFC8"/></linearGradient>
    <filter id="s" x="-20%" y="-20%" width="150%" height="165%"><feDropShadow dx="0" dy="18" stdDeviation="19" flood-color="#173A86" flood-opacity=".25"/></filter>
  </defs>
  <g filter="url(#s)">
    <rect x="28" y="28" width="364" height="364" rx="102" fill="url(#tile)"/>
    <rect x="38" y="38" width="344" height="344" rx="92" fill="none" stroke="#fff" stroke-opacity=".3" stroke-width="5"/>
    <path d="M210 105c-21 34-78 90-78 144 0 48 35 78 78 78s78-30 78-78c0-54-57-110-78-144Z" fill="#fff"/>
    <path d="M210 162c-14 20-41 50-41 77 0 25 18 42 41 42s41-17 41-42c0-27-27-57-41-77Z" fill="url(#tile)"/>
  </g>
  <text x="444" y="187" fill="url(#word)" font-family="Unbounded, Arial, sans-serif" font-size="108" font-weight="800" letter-spacing="-6">losthusky /</text>
  <text x="444" y="318" fill="url(#word)" font-family="Unbounded, Arial, sans-serif" font-size="108" font-weight="800" letter-spacing="-6">drop</text>
</svg>
